<?xml version='1.0' encoding='utf-8'?>
<svg xmlns="http://www.w3.org/2000/svg" xmlns:xlink="http://www.w3.org/1999/xlink" enable-background="new 0 0 189 119" version="1.1" viewBox="0 0 189 119">
<symbol id="g" viewBox="0 -119 189 119">
		<g clip-rule="evenodd" fill-rule="evenodd">
				<radialGradient id="e" cx="94.5" cy="-103.25" r="86.3" gradientTransform="matrix(1 0 0 -.1667 0 -120.46)" gradientUnits="userSpaceOnUse">
				<stop stop-opacity=".2471" offset="0"/>
				<stop stop-opacity="0" offset="1"/>
			</radialGradient>
			<path d="m189-103.25c0-4.367-9.217-8.083-27.65-11.15-18.467-3.066-40.75-4.6-66.85-4.6s-48.367 1.533-66.8 4.6c-18.467 3.07-27.7 6.78-27.7 11.15 0 4.566 8.883 8.333 26.65 11.3 17.733 2.967 40.35 4.45 67.85 4.45 26.1 0 48.383-1.534 66.85-4.6 18.43-3.1 27.65-6.817 27.65-11.15z" fill="url(#e)"/>
				<radialGradient id="f" cx="94.65" cy="-104.4" r="109.59" gradientTransform="matrix(1 0 0 -1 0 -208.8)" gradientUnits="userSpaceOnUse">
				<stop stop-opacity=".2471" offset="0"/>
				<stop stop-opacity="0" offset="1"/>
			</radialGradient>
			<path d="m159.45-93.8l11.7-20.25c-3.6-0.6-6.15-0.75-7.65-0.45l-9.9 15.75-69.3-0.9-7.65-14.4c-36.9-0.9-56.4-1.2-58.5-0.9l3.6 5.85 4.3 14.85 133.4 0.45z" fill="url(#f)"/>
				<polygon points="157.05 -64.4 157.05 -97.1 32.85 -97.1 32.85 -65" fill="#4F3727"/>
				<polygon points="157.05 -90.35 157.05 -97.1 32.85 -97.1 32.85 -90.45" fill="#493226"/>
				<polygon points="157.05 -94.55 157.05 -97.1 32.85 -97.1 32.85 -94.6" fill="#35251C"/>
				<polygon points="157.05 -85.1 32.85 -84.95 32.85 -77.15 157.05 -77.15" fill="#493226"/>
				<polygon points="157.05 -81.65 32.85 -81.55 32.85 -77.15 157.05 -77.15" fill="#35251C"/>
				<polygon points="155.4 -55.4 166.5 -63.2 164.55 -112.1 155.7 -96.5" fill="#493226"/>
				<path d="m155.4-55.4l11.1-7.8c-0.2-3.6-0.8-7.467-1.8-11.6-0.633-2.633-0.667-5.367-0.1-8.2 0.066-0.267-0.383-1.034-1.35-2.3-1.2-1.6-2.1-3.383-2.7-5.35-1.1-3.6-1.767-7.05-2-10.35l-3.15 4.05v41.55z" fill="#3A2821"/>
				<polygon points="155.7 -76.45 155.4 -55.4 166.5 -59.4 164.55 -84.4" fill="#3A2821"/>
				<polygon points="82.95 -60.95 82.7 -97.15 74.55 -112.1 73.8 -63.2" fill="#493226"/>
				<path d="m82.95-60.95l0.3-36-3.45-5.85c0.1 1.033 0.15 2.317 0.15 3.85-0.067 3.033-0.417 5.733-1.05 8.1-0.667 2.333-1.583 4.6-2.75 6.8l-1.55 2.65-0.8 19 9.15 1.45z" fill="#3A2821"/>
				<polygon points="82.7 -77.1 74.55 -83.75 73.8 -61.95 82.95 -60.95" fill="#3A2821"/>
				<polygon points="21.45 -98.9 21.45 -64.1 74.85 -64.1 74.85 -98.9" fill="#775437"/>
				<polygon points="21.45 -70.3 21.45 -64.1 74.85 -64.1 74.85 -70.3" fill="#6B4B32"/>
				<polygon points="21.45 -67.05 21.45 -64.1 74.85 -64.1 74.85 -67.05" fill="#5B3F2C"/>
				<polygon points="163.05 -64.25 163.05 -79.75 75.75 -79.75 75.75 -64.25" fill="#775437"/>
				<polygon points="163.05 -64.25 163.05 -67.75 75.75 -67.75 75.75 -64.25" fill="#6B4B32"/>
				<polygon points="163.05 -64.25 163.05 -65.95 75.75 -65.95 75.75 -64.25" fill="#5B3F2C"/>
				<polygon points="21.45 -98.9 74.55 -98.9 74.55 -112.1 21.45 -112.1" fill="#966845"/>
				<polygon points="21.45 -101.3 74.55 -101.3 74.55 -112.1 21.45 -112.1" fill="#775437"/>
				<polygon points="21.45 -98.55 74.85 -98.55 74.85 -100.15 21.45 -100.15" fill="#5B3F2C"/>
				<polygon points="21.45 -98.55 74.85 -98.55 74.85 -99.35 21.45 -99.35" fill="#493325"/>
				<polygon points="171.75 -60.2 13.4 -60.2 31.5 -50.35 152.15 -50.2" fill="#966944"/>
				<polygon points="172.35 -60.25 172.35 -64.65 13.4 -64.65 13.4 -60.25" fill="#825C3A"/>
				<polygon points="172.35 -60.25 172.35 -62.4 13.4 -62.4 13.4 -60.25" fill="#755235"/>
				<polygon points="172.35 -60.2 172.35 -61.1 13.4 -61.1 13.4 -60.2" fill="#66472F"/>
				<polygon points="164.25 -64.4 168.3 -64.7 168.3 -112.1 164.55 -112.1" fill="#775437"/>
				<polygon points="164.25 -64.4 168.3 -64.4 168.3 -68.45 164.25 -68.3" fill="#6B4B32"/>
				<polygon points="164.25 -64.4 168.3 -64.4 168.3 -66.8 164.25 -66.7" fill="#5B3F2C"/>
				<polygon points="168.3 -100.25 164.15 -100.25 164.15 -98.6 168.3 -98.6" fill="#60422D"/>
				<polygon points="168.3 -99.5 164.15 -99.5 164.15 -98.45 168.3 -98.45" fill="#493325"/>
				<polygon points="152.25 -50.4 32.25 -50.4 32.25 -14.9 152.25 -14" fill="#4F3727"/>
				<polygon points="152.25 -50.4 32.25 -50.4 32.25 -42.65 152.25 -42.45" fill="#493226"/>
				<polygon points="152.25 -50.4 32.25 -50.4 32.25 -48.6 152.25 -48.55" fill="#35251C"/>
				<polygon points="152.25 -30.4 152.25 -37.05 32.25 -36.9 32.25 -30.4" fill="#493226"/>
				<polygon points="152.25 -30.4 152.25 -34 32.25 -33.95 32.25 -30.4" fill="#35251C"/>
				<polygon points="152.25 -25.85 32.25 -25.85 32.25 -23.95 152.25 -23.9" fill="#493226"/>
				<polygon points="152.25 -22.55 32.25 -22.55 32.25 -14.2 152.25 -14" fill="#493226"/>
				<polygon points="152.25 -20.9 32.25 -20.9 32.25 -14.15 152.25 -14" fill="#35251C"/>
				<polygon points="152.25 -24.95 152.25 -25.7 32.25 -25.7 32.25 -24.95" fill="#35251C"/>
				<polygon points="165.15 -6.85 18.15 -7.1 18.1 -3.4 165.1 -3" fill="#825C3A"/>
				<polygon points="165.15 -4.7 18.15 -5.1 18.1 -3.4 165.1 -2.95" fill="#755235"/>
				<polygon points="165.15 -3.7 18.1 -4.15 18.1 -3.4 165.1 -2.9" fill="#66472F"/>
				<polygon points="158.4 0 165.1 -3 18.1 -3.4 25.35 -0.2" fill="#966944"/>
				<polygon points="165.15 -3.2 18.1 -3.7 18.7 -2.9 164.6 -2.45" fill="#A8724E"/>
				<path d="m20-26.15l3.55 3.4 1.35 15.9 3.35 0.25-0.2-40.4-10.2-12.6c-0.6 8.6-1 16.167-1.2 22.7-0.133 4.1 0.983 7.683 3.35 10.75z" fill="#60422D"/>
				<path d="m25.35-26.25l-0.3 2.95-0.3 15.05 0.15 1.4 3.35 0.15 0.3-44.4-10.7-8.5 0.05 4.3c2.7 2.533 4.617 4.667 5.75 6.4 0.767 1.167 1.35 3.784 1.75 7.85 0.333 3.333 0.467 6.3 0.4 8.9-0.067 1.633-0.217 3.6-0.45 5.9z" fill="#563B29"/>
				<path d="m22-23.95l1.55 1.2 1.35 15.9 2.55 0.2-1.55-16.7-2.3-2.35c-1.733-1.967-3.15-4-4.25-6.1-0.8-1.566-1.217-5.283-1.25-11.15-0.033-5.233 0.2-10.3 0.7-15.2l-0.95-1.45c-0.6 8.6-1 16.167-1.2 22.7-0.2 5.233 1.583 9.55 5.35 12.95z" fill="#563B29"/>
				<path d="m20.75-6.5h3.55l0.3-16.8-2.85-3.15c-2-2.6-3.317-5.1-3.95-7.5-0.6-2.433-0.833-7.433-0.7-15 0.066-3.8 0.2-7.35 0.4-10.65l-3.5 0.15c-0.4 9.467-0.5 17.15-0.3 23.05 0.133 3.7 1.35 7.034 3.65 10l3.4 3.4v16.5z" fill="#825C3A"/>
				<polygon points="27.75 -6.7 29.15 -7.75 29.15 -18.85 32.55 -18.85 32.4 -41.8 28.05 -47" fill="#493226"/>
				<path d="m31.2-25.5v1.95c-0.034 0.467-0.083 0.783-0.15 0.95-0.267 0.633-0.833 0.867-1.7 0.7-0.434-0.1-0.833-0.25-1.2-0.45-0.066 0.533-0.117 1.066-0.15 1.6-0.1 1.066-0.05 1.617 0.15 1.65l4.4 0.25-0.3-31.55-4.5-2.25 0.15 9.6c1.8 0.9 2.817 1.833 3.05 2.8 0.033 0.066-0.434 2.083-1.4 6.05-0.966 4-1.433 6.267-1.4 6.8l3.05 1.9z" fill="#3A2821"/>
				<polygon points="75.95 -37.6 28.5 -37.95 28.5 -28.5 75.95 -28.5" fill="#775437"/>
				<polygon points="75.95 -31.65 28.5 -31.8 28.5 -28.5 75.95 -28.5" fill="#825C3A"/>
				<polygon points="28.5 -35.5 75.95 -35.6 75.95 -38.1 28.5 -38.1" fill="#6B4B32"/>
				<polygon points="26.7 -6.95 28.05 -6.95 28.05 -50.8 26.45 -52.25" fill="#775437"/>
				<polygon points="28.05 -6.95 28.05 -21.95 26.45 -22.45 26.7 -6.95" fill="#6B4B32"/>
				<polygon points="28.05 -6.95 28.05 -19.7 26.45 -20.1 26.7 -6.95" fill="#4C3525"/>
				<path d="m163.95-25.95c2.2-3.067 3.25-6.633 3.15-10.7-0.2-6.533-0.583-14.1-1.15-22.7l-9.55 12.6-0.35 40.15 3.45-0.1 1.1-15.85 3.35-3.4z" fill="#60422D"/>
				<path d="m159.1-8.45l-0.25-23.8c-0.067-2.5 0.066-5.333 0.4-8.5 0.4-3.833 0.95-6.317 1.65-7.45 1.033-1.7 2.567-3.867 4.6-6.5l0.05-4.2-7.7 7.5-2 44.5 3.15-0.15 0.1-1.4z" fill="#563B29"/>
				<path d="m161.75-23.7c3.533-3.233 5.217-7.433 5.05-12.6-0.2-6.367-0.566-13.717-1.1-22.05l-0.95 1.4c0.433 4.433 0.567 9.25 0.4 14.45-0.2 5.5-0.683 9.033-1.45 10.6-1 2.034-2.267 3.767-3.8 5.2l-2.05 1.55-1.15 18.2 2.35-0.15h0.05l1.25-15.5 1.4-1.1z" fill="#563B29"/>
				<path d="m162.85-6.7v-16.35l3.3-3.35c2.2-3 3.35-6.316 3.45-9.95 0.2-5.867 0.267-13.517 0.2-22.95l-3.85-0.05c0.2 3.267 0.333 6.783 0.4 10.55 0.133 7.5-0.1 12.45-0.7 14.85-0.566 2.4-1.75 4.85-3.55 7.35l-2.5 3-0.1 16.9h3.35z" fill="#825C3A"/>
				<polygon points="156.65 -6.5 156.3 -46.75 151.8 -41.55 152 -18.6 155.2 -18.6 155.2 -7.55" fill="#493226"/>
				<path d="m156.15-29.8c0.2-3.333-0.333-5.467-1.6-6.4-1.066-0.767-1.316-2.45-0.75-5.05 0.2-0.934 0.684-1.483 1.45-1.65 0.4-0.066 0.783-0.05 1.15 0.05l-0.05-9.6-4.2 2.25-0.5 31.2 5.1 0.45-0.4-4.3c-0.367 0.133-0.767 0.233-1.2 0.3-0.867 0.1-1.433-0.066-1.7-0.5-0.3-0.6-0.45-0.933-0.45-1-0.1-0.6 0.2-1.233 0.9-1.9 0.467-0.433 1-0.833 1.6-1.2 0.37-0.433 0.58-1.317 0.65-2.65z" fill="#3A2821"/>
				<polygon points="157.65 -6.7 158.05 -52.45 156.35 -52.45 156.4 -6.7" fill="#825C3A"/>
				<polygon points="156.4 -6.7 157.65 -6.7 157.85 -23.35 156.35 -22.85" fill="#6B4B32"/>
				<polygon points="156.4 -6.7 157.65 -6.7 157.85 -20.2 156.35 -19.8" fill="#4C3525"/>
				<polygon points="78.2 -18.65 78.2 -38.1 75.95 -38.05 75.95 -18.65" fill="#775437"/>
				<polygon points="78.2 -18.65 78.2 -38.1 77.75 -38.05 77.75 -18.65" fill="#825C3A"/>
				<polygon points="76.75 -18.65 76.75 -38.1 75.95 -38.05 75.95 -18.65" fill="#60422D"/>
				<polygon points="78.2 -18.7 81.6 -18.7 81.35 -34.7 78.2 -37.75" fill="#60422D"/>
				<path d="m80.55-22.8c-0.133 0.4-0.55 0.85-1.25 1.35l-1 0.65-0.1 2.1 4.4-0.05v-15.75l-1.3-0.25-2.55-2.45 0.15 9.35 1.9 1.65c0.067 1.6-0.017 2.733-0.25 3.4z" fill="#4F3727"/>
				<polygon points="75.95 -28.5 28.5 -28.5 32.55 -26.55 75.6 -26.4" fill="#60422D"/>
				<path d="m150.45-35.3c-0.167 0.5-0.467 0.983-0.9 1.45-0.867 0.933-1.966 1.35-3.3 1.25-1.3-0.1-2.517-0.583-3.65-1.45-0.533-0.433-0.95-0.85-1.25-1.25-0.267 0.367-0.684 0.767-1.25 1.2-1.1 0.8-2.317 1.3-3.65 1.5s-7.15 0.3-17.45 0.3c-5.233 0-10.85-0.017-16.85-0.05-1.033 0-2.283-0.533-3.75-1.6-0.733-0.5-1.367-1.017-1.9-1.55-0.333 0.4-0.817 0.8-1.45 1.2-1.267 0.833-2.667 1.25-4.2 1.25s-2.633-0.417-3.3-1.25c-0.367-0.4-0.566-0.8-0.6-1.2h-7.6v6.95h76.5v-6.75h-5.4z" fill="#775437"/>
				<polygon points="155.85 -28.55 79.35 -28.55 82.35 -25.6 152 -25.6" fill="#60422D"/>
				<polygon points="151.55 -50.7 157.85 -54.15 26.45 -54.3 32.25 -50.85" fill="#8E6343"/>
					<polygon points="160.35 -66.8 160.35 -78.05 78.6 -78.05 78.6 -66.8" fill="#966845"/>
					<polygon points="158.25 -67.7 158.25 -76.55 80.7 -76.55 80.7 -67.7" fill="#825C3A"/>
					<polygon points="78.6 -78.05 78.6 -66.8 80.7 -67.7 80.7 -76.55" fill="#543B29"/>
					<polygon points="158.25 -67.7 160.35 -66.8 160.35 -78.05 158.25 -76.55" fill="#543B29"/>
					<path d="m151.65-68.9c-3.8 0.2-14.967 0.3-33.5 0.3-19.633-0.033-30.417-0.233-32.35-0.6-1.633-0.3-2.966-0.85-4-1.65-0.533-0.367-0.9-0.717-1.1-1.05v4.2h77.55v-4.35c-0.133 0.467-0.5 0.95-1.1 1.45-1.23 1-3.07 1.566-5.5 1.7z" fill="#A06F4A"/>
					<polygon points="160.35 -78.05 78.6 -78.05 80.7 -76.55 158.25 -76.55" fill="#473325"/>
						<path d="m114.3-71.15c0-0.667-0.25-1.25-0.75-1.75-0.5-0.466-1.1-0.7-1.8-0.7s-1.3 0.233-1.8 0.7c-0.5 0.5-0.75 1.083-0.75 1.75s0.25 1.25 0.75 1.75c0.5 0.467 1.1 0.7 1.8 0.7s1.3-0.233 1.8-0.7c0.5-0.5 0.75-1.083 0.75-1.75z" fill="#66472F"/>
						<path d="m130.35-70.8c0-0.667-0.267-1.25-0.8-1.75-0.5-0.467-1.117-0.7-1.85-0.7s-1.35 0.233-1.85 0.7c-0.5 0.5-0.75 1.083-0.75 1.75 0 0.7 0.25 1.283 0.75 1.75 0.5 0.5 1.117 0.75 1.85 0.75s1.35-0.25 1.85-0.75c0.53-0.467 0.8-1.05 0.8-1.75z" fill="#66472F"/>
						<path d="m114-70.95c0-0.567-0.2-1.067-0.6-1.5-0.433-0.4-0.95-0.6-1.55-0.6s-1.117 0.2-1.55 0.6c-0.433 0.433-0.65 0.933-0.65 1.5s0.217 1.05 0.65 1.45c0.434 0.4 0.95 0.6 1.55 0.6s1.117-0.2 1.55-0.6c0.4-0.4 0.6-0.883 0.6-1.45z" fill="#A88356"/>
						<path d="m113.5-70.95c0-0.433-0.167-0.817-0.5-1.15-0.3-0.3-0.683-0.45-1.15-0.45s-0.85 0.15-1.15 0.45c-0.333 0.333-0.5 0.717-0.5 1.15s0.167 0.8 0.5 1.1 0.716 0.45 1.15 0.45c0.467 0 0.85-0.15 1.15-0.45 0.33-0.3 0.5-0.667 0.5-1.1z" fill="#EFC48F"/>
						<path d="m113.5-71.15c0-0.433-0.15-0.783-0.45-1.05-0.3-0.3-0.683-0.45-1.15-0.45-0.433 0-0.816 0.15-1.15 0.45-0.3 0.267-0.45 0.617-0.45 1.05 0 0.434 0.15 0.784 0.45 1.05 0.333 0.3 0.717 0.45 1.15 0.45 0.467 0 0.85-0.15 1.15-0.45 0.3-0.267 0.45-0.617 0.45-1.05z" fill="#BC9561"/>
						<path d="m113.25-71.1c0-0.333-0.133-0.617-0.4-0.85-0.233-0.233-0.533-0.35-0.9-0.35-0.333 0-0.633 0.117-0.9 0.35-0.233 0.233-0.35 0.517-0.35 0.85s0.117 0.617 0.35 0.85 0.534 0.35 0.9 0.35 0.667-0.117 0.9-0.35c0.27-0.233 0.4-0.517 0.4-0.85z" fill="#A88356"/>
						<path d="m129.9-70.65c0-0.566-0.2-1.066-0.6-1.5-0.433-0.4-0.95-0.6-1.55-0.6s-1.117 0.2-1.55 0.6c-0.434 0.434-0.65 0.934-0.65 1.5 0 0.567 0.217 1.05 0.65 1.45s0.95 0.6 1.55 0.6 1.117-0.2 1.55-0.6c0.4-0.4 0.6-0.883 0.6-1.45z" fill="#A88356"/>
						<path d="m129.4-70.65c0-0.433-0.167-0.816-0.5-1.15-0.3-0.3-0.683-0.45-1.15-0.45s-0.85 0.15-1.15 0.45c-0.333 0.333-0.5 0.717-0.5 1.15 0 0.434 0.167 0.8 0.5 1.1s0.717 0.45 1.15 0.45c0.467 0 0.85-0.15 1.15-0.45 0.33-0.3 0.5-0.667 0.5-1.1z" fill="#EFC48F"/>
						<path d="m129.4-70.85c0-0.434-0.15-0.783-0.45-1.05-0.3-0.3-0.684-0.45-1.15-0.45-0.433 0-0.816 0.15-1.15 0.45-0.3 0.267-0.45 0.617-0.45 1.05s0.15 0.783 0.45 1.05c0.333 0.3 0.717 0.45 1.15 0.45 0.467 0 0.85-0.15 1.15-0.45 0.3-0.267 0.45-0.617 0.45-1.05z" fill="#BC9561"/>
						<path d="m129.15-70.8c0-0.333-0.133-0.617-0.4-0.85-0.233-0.233-0.533-0.35-0.9-0.35-0.333 0-0.633 0.117-0.9 0.35-0.233 0.233-0.35 0.517-0.35 0.85s0.117 0.617 0.35 0.85 0.533 0.35 0.9 0.35 0.667-0.117 0.9-0.35c0.27-0.234 0.4-0.517 0.4-0.85z" fill="#A88356"/>
						<path d="m111.6-70.15c0.433 0.067 0.9 0.117 1.4 0.15 1 0.033 1.667-0.1 2-0.4 0.367-0.333 0.6-1.017 0.7-2.05 0.066-0.867 0.433-1.35 1.1-1.45 1.133-0.133 2.367-0.183 3.7-0.15 1.633 0.033 2.717 0.2 3.25 0.5 0.4 0.233 0.75 0.9 1.05 2 0.233 1.033 0.567 1.567 1 1.6 0.833 0.067 1.667 0.067 2.5 0l-0.05-1.55c-0.3 0-0.633-0.034-1-0.1-0.7-0.133-1.117-0.367-1.25-0.7 0-0.033-0.033-0.617-0.1-1.75-0.033-0.767-0.3-1.2-0.8-1.3-1.133-0.2-2.85-0.317-5.15-0.35-2.967-0.033-4.733 0.2-5.3 0.7-0.5 0.4-0.7 1-0.6 1.8 0.067 0.667-0.033 1.033-0.3 1.1-0.6 0.167-1.317 0.283-2.15 0.35v1.6z" fill="#CEA467"/>
						<path d="m114.55-71.3c0.333-0.2 0.567-0.733 0.7-1.6 0.133-0.767 0.467-1.2 1-1.3 0.8-0.2 2.217-0.3 4.25-0.3 2.1 0 3.333 0.133 3.7 0.4 0.233 0.167 0.533 0.75 0.9 1.75 0.333 0.967 0.683 1.55 1.05 1.75 0.233 0.133 0.583 0.167 1.05 0.1 0.566-0.1 0.917-0.133 1.05-0.1v-0.9c-0.3 0-0.633-0.034-1-0.1-0.7-0.133-1.117-0.367-1.25-0.7 0-0.033-0.033-0.617-0.1-1.75-0.033-0.767-0.3-1.2-0.8-1.3-1.133-0.2-2.85-0.317-5.15-0.35-2.967-0.033-4.733 0.2-5.3 0.7-0.5 0.4-0.7 1-0.6 1.8 0.067 0.667-0.033 1.033-0.3 1.1-0.6 0.167-1.317 0.283-2.15 0.35v1c0.267 0.066 0.717 0.05 1.35-0.05 0.67-0.1 1.2-0.267 1.6-0.5z" fill="#BC9561"/>
						<path d="m119.95-75.7c-2.967-0.033-4.733 0.2-5.3 0.7-0.433 0.367-0.633 0.883-0.6 1.55 0.034 0.733 0.017 1.133-0.05 1.2l0.2 0.3c0.033-0.033 0.117-0.583 0.25-1.65 0.133-0.767 0.5-1.2 1.1-1.3 1.467-0.2 3.233-0.316 5.3-0.35 2.8-0.1 4.333 0.05 4.6 0.45 0.2 0.267 0.25 0.95 0.15 2.05-0.1 0.933 0.083 1.417 0.55 1.45 0.567 0.033 1.267 0.217 2.1 0.55v-0.75c-0.3 0-0.633-0.034-1-0.1-0.7-0.133-1.117-0.367-1.25-0.7 0-0.033-0.033-0.617-0.1-1.75-0.033-0.767-0.3-1.2-0.8-1.3-1.13-0.2-2.85-0.317-5.15-0.35z" fill="#A88356"/>
						<path d="m115.8-73.75c0.967-0.4 2.417-0.55 4.35-0.45l4.05 0.1c-1.034-0.367-2.45-0.55-4.25-0.55s-3.18 0.3-4.15 0.9z" fill="#EFC48F"/>
						<path d="m112.4-70.85c0.333 0.1 0.7 0.167 1.1 0.2 0.733 0.1 1.2 0.034 1.4-0.2 0.3-0.367 0.4-0.85 0.3-1.45-0.367 0.6-0.767 0.9-1.2 0.9-0.47 0-1 0.183-1.6 0.55z" fill="#EFC48F"/>
						<path d="m125.45-71.85c-0.034 0.167-0.05 0.35-0.05 0.55 0.033 0.434 0.233 0.767 0.6 1 0.3 0.2 0.667 0.317 1.1 0.35h0.6l-1.55-0.65-0.7-1.25z" fill="#EFC48F"/>
					<polygon points="158.3 -68.05 80.7 -68.05 80.8 -67.6 158.3 -67.6" fill="#AF7852"/>
					<polygon points="25.35 -80.6 25.35 -69.35 70.95 -69.35 70.95 -80.6" fill="#966845"/>
					<polygon points="26.5 -79.1 26.5 -70.25 69.8 -70.25 69.8 -79.1" fill="#825C3A"/>
					<polygon points="25.35 -69.35 26.5 -70.25 26.5 -79.1 25.35 -80.6" fill="#543B29"/>
					<polygon points="69.8 -70.25 70.95 -69.35 70.95 -80.6 69.8 -79.1" fill="#543B29"/>
					<path d="m26.5-70.25h43.3v-4.35c-0.066 0.467-0.283 0.95-0.65 1.45-0.667 1-1.683 1.567-3.05 1.7-2.1 0.2-8.333 0.3-18.7 0.3-10.967-0.033-16.983-0.233-18.05-0.6-0.9-0.3-1.65-0.85-2.25-1.65-0.267-0.367-0.467-0.716-0.6-1.05v4.2z" fill="#A06F4A"/>
					<polygon points="26.5 -79.1 69.8 -79.1 70.95 -80.6 25.35 -80.6" fill="#473325"/>
						<path d="m43.95-73.7c0-0.667-0.217-1.25-0.65-1.75s-0.95-0.75-1.55-0.75-1.117 0.25-1.55 0.75c-0.434 0.5-0.65 1.083-0.65 1.75s0.217 1.25 0.65 1.75c0.433 0.467 0.95 0.7 1.55 0.7s1.117-0.233 1.55-0.7c0.433-0.5 0.65-1.084 0.65-1.75z" fill="#66472F"/>
						<path d="m57.5-73.35c0-0.667-0.217-1.25-0.65-1.75-0.434-0.467-0.95-0.7-1.55-0.7-0.633 0-1.167 0.233-1.6 0.7-0.434 0.5-0.65 1.083-0.65 1.75 0 0.7 0.217 1.283 0.65 1.75 0.433 0.5 0.966 0.75 1.6 0.75 0.6 0 1.117-0.25 1.55-0.75 0.433-0.467 0.65-1.05 0.65-1.75z" fill="#66472F"/>
						<path d="m43.65-73.5c0-0.567-0.183-1.067-0.55-1.5-0.333-0.4-0.767-0.6-1.3-0.6-0.5 0-0.933 0.2-1.3 0.6-0.367 0.433-0.55 0.933-0.55 1.5 0 0.533 0.183 1.017 0.55 1.45 0.367 0.4 0.8 0.6 1.3 0.6 0.534 0 0.967-0.2 1.3-0.6 0.367-0.4 0.55-0.884 0.55-1.45z" fill="#A88356"/>
						<path d="m43.25-73.5c0-0.434-0.133-0.817-0.4-1.15-0.3-0.3-0.633-0.45-1-0.45-0.4 0-0.733 0.15-1 0.45s-0.4 0.684-0.4 1.15c0 0.433 0.133 0.8 0.4 1.1s0.6 0.45 1 0.45c0.367 0 0.7-0.15 1-0.45 0.267-0.3 0.4-0.667 0.4-1.1z" fill="#EFC48F"/>
						<path d="m43.25-73.7c0-0.433-0.133-0.783-0.4-1.05-0.267-0.3-0.583-0.45-0.95-0.45s-0.7 0.15-1 0.45c-0.267 0.267-0.4 0.617-0.4 1.05s0.133 0.783 0.4 1.05c0.3 0.3 0.633 0.45 1 0.45s0.684-0.15 0.95-0.45c0.267-0.267 0.4-0.617 0.4-1.05z" fill="#BC9561"/>
						<path d="m43-73.65c0-0.333-0.1-0.617-0.3-0.85s-0.45-0.35-0.75-0.35-0.55 0.117-0.75 0.35c-0.233 0.233-0.35 0.517-0.35 0.85s0.117 0.617 0.35 0.85c0.2 0.233 0.45 0.35 0.75 0.35s0.55-0.117 0.75-0.35c0.2-0.234 0.3-0.517 0.3-0.85z" fill="#A88356"/>
						<path d="m57.15-73.2c0-0.567-0.183-1.067-0.55-1.5-0.333-0.4-0.767-0.6-1.3-0.6-0.5 0-0.933 0.2-1.3 0.6-0.367 0.433-0.55 0.933-0.55 1.5 0 0.533 0.183 1.017 0.55 1.45 0.367 0.4 0.8 0.6 1.3 0.6 0.534 0 0.967-0.2 1.3-0.6 0.367-0.4 0.55-0.883 0.55-1.45z" fill="#A88356"/>
						<path d="m56.75-73.2c0-0.433-0.133-0.817-0.4-1.15-0.3-0.3-0.633-0.45-1-0.45-0.4 0-0.733 0.15-1 0.45s-0.4 0.683-0.4 1.15c0 0.433 0.133 0.8 0.4 1.1s0.6 0.45 1 0.45c0.367 0 0.7-0.15 1-0.45 0.267-0.3 0.4-0.667 0.4-1.1z" fill="#EFC48F"/>
						<path d="m56.75-73.4c0-0.433-0.133-0.783-0.4-1.05-0.3-0.3-0.633-0.45-1-0.45s-0.684 0.15-0.95 0.45c-0.267 0.267-0.4 0.617-0.4 1.05 0 0.434 0.133 0.784 0.4 1.05 0.267 0.3 0.583 0.45 0.95 0.45s0.7-0.15 1-0.45c0.267-0.267 0.4-0.617 0.4-1.05z" fill="#BC9561"/>
						<path d="m56.5-73.35c0-0.333-0.1-0.617-0.3-0.85s-0.45-0.35-0.75-0.35-0.55 0.117-0.75 0.35c-0.233 0.233-0.35 0.517-0.35 0.85s0.117 0.617 0.35 0.85c0.2 0.233 0.45 0.35 0.75 0.35s0.55-0.117 0.75-0.35 0.3-0.517 0.3-0.85z" fill="#A88356"/>
						<path d="m42.85-72.55c0.833 0.033 1.383-0.1 1.65-0.4 0.333-0.333 0.533-1.017 0.6-2.05 0.066-0.867 0.383-1.35 0.95-1.45 0.934-0.133 1.967-0.183 3.1-0.15 1.4 0.033 2.333 0.2 2.8 0.5 0.333 0.2 0.617 0.867 0.85 2 0.2 1.033 0.483 1.566 0.85 1.6h2.15l-0.05-1.55-0.85-0.1c-0.566-0.133-0.917-0.367-1.05-0.7-0.033-0.067-0.067-0.65-0.1-1.75-0.033-0.8-0.25-1.233-0.65-1.3-0.867-0.2-2.333-0.316-4.4-0.35-2.5-0.034-4 0.2-4.5 0.7-0.434 0.4-0.6 1-0.5 1.8 0.033 0.667-0.05 1.033-0.25 1.1-0.5 0.167-1.1 0.284-1.8 0.35v1.6c0.367 0.067 0.767 0.117 1.2 0.15z" fill="#CEA467"/>
						<path d="m44.2-77.55c-0.434 0.4-0.6 1-0.5 1.8 0.033 0.667-0.05 1.033-0.25 1.1-0.5 0.167-1.1 0.284-1.8 0.35v1c0.2 0.067 0.567 0.05 1.1-0.05 0.6-0.1 1.05-0.267 1.35-0.5 0.3-0.2 0.517-0.733 0.65-1.6 0.1-0.767 0.367-1.2 0.8-1.3 0.7-0.2 1.9-0.3 3.6-0.3 1.8 0 2.867 0.133 3.2 0.4 0.2 0.167 0.45 0.733 0.75 1.7 0.267 0.967 0.55 1.55 0.85 1.75 0.2 0.167 0.5 0.217 0.9 0.15 0.5-0.1 0.8-0.133 0.9-0.1v-0.9l-0.85-0.1c-0.566-0.133-0.917-0.367-1.05-0.7-0.033-0.067-0.067-0.65-0.1-1.75-0.033-0.8-0.25-1.233-0.65-1.3-0.867-0.2-2.333-0.316-4.4-0.35-2.5-0.034-4 0.2-4.5 0.7z" fill="#BC9561"/>
						<path d="m48.7-78.25c-2.5-0.034-4 0.2-4.5 0.7-0.4 0.367-0.583 0.883-0.55 1.55 0.033 0.733 0.033 1.133 0 1.2l0.2 0.3 0.2-1.65c0.1-0.767 0.417-1.2 0.95-1.3 1-0.2 2.483-0.333 4.45-0.4 2.367-0.067 3.683 0.1 3.95 0.5 0.167 0.233 0.2 0.917 0.1 2.05-0.1 0.934 0.05 1.417 0.45 1.45 0.5 0.033 1.1 0.217 1.8 0.55v-0.75l-0.85-0.1c-0.566-0.133-0.917-0.367-1.05-0.7-0.033-0.067-0.067-0.65-0.1-1.75-0.033-0.8-0.25-1.233-0.65-1.3-0.867-0.2-2.333-0.317-4.4-0.35z" fill="#A88356"/>
						<path d="m45.15-76.3c0.833-0.4 2.083-0.55 3.75-0.45l3.45 0.1-0.95-0.3c-0.833-0.167-1.733-0.25-2.7-0.25-1.533 0-2.717 0.3-3.55 0.9z" fill="#EFC48F"/>
						<path d="m42.3-73.4c0.3 0.1 0.6 0.167 0.9 0.2 0.633 0.1 1.033 0.033 1.2-0.2 0.267-0.367 0.367-0.85 0.3-1.45-0.067 0.133-0.167 0.283-0.3 0.45-0.267 0.3-0.517 0.45-0.75 0.45-0.4 0-0.85 0.183-1.35 0.55z" fill="#EFC48F"/>
						<path d="m53.4-74.4c-0.167 0.667-0.017 1.184 0.45 1.55 0.267 0.2 0.583 0.316 0.95 0.35h0.5l-1.35-0.7-0.55-1.2z" fill="#EFC48F"/>
					<polygon points="26.5 -70.25 69.8 -70.25 69.8 -70.7 26.45 -70.7" fill="#AF7852"/>
					<polygon points="30.9 -29.75 73.9 -29.75 73.9 -37.4 30.9 -37.4" fill="#966845"/>
					<polygon points="72.8 -30.35 72.8 -36.4 32 -36.4 32 -30.35" fill="#825C3A"/>
					<polygon points="32 -30.35 32 -36.4 30.9 -37.4 30.9 -29.75" fill="#543B29"/>
					<polygon points="72.8 -30.35 73.9 -29.75 73.9 -37.4 72.8 -36.4" fill="#543B29"/>
					<path d="m72.2-32.35c-0.633 0.667-1.583 1.05-2.85 1.15-1.9 0.167-7.783 0.233-17.65 0.2-10.3 0-15.967-0.133-17-0.4-1.367-0.333-2.267-0.933-2.7-1.8v2.85h40.8v-2.95c-0.067 0.3-0.267 0.616-0.6 0.95z" fill="#A06F4A"/>
					<polygon points="73.9 -37.4 30.9 -37.4 32 -36.4 72.8 -36.4" fill="#473325"/>
						<path d="m49.45-32.7c0-0.467-0.167-0.867-0.5-1.2-0.367-0.333-0.784-0.5-1.25-0.5-0.467 0-0.883 0.167-1.25 0.5-0.333 0.333-0.5 0.733-0.5 1.2 0 0.433 0.167 0.817 0.5 1.15 0.367 0.333 0.783 0.5 1.25 0.5 0.466 0 0.883-0.167 1.25-0.5 0.333-0.333 0.5-0.717 0.5-1.15z" fill="#66472F"/>
						<path d="m60.35-32.45c0-0.467-0.167-0.867-0.5-1.2-0.367-0.333-0.8-0.5-1.3-0.5s-0.917 0.167-1.25 0.5c-0.367 0.333-0.55 0.733-0.55 1.2s0.183 0.85 0.55 1.15c0.333 0.333 0.75 0.5 1.25 0.5s0.934-0.167 1.3-0.5c0.333-0.3 0.5-0.683 0.5-1.15z" fill="#66472F"/>
						<path d="m49.25-32.6c0-0.367-0.15-0.7-0.45-1-0.267-0.267-0.617-0.4-1.05-0.4-0.4 0-0.733 0.133-1 0.4-0.3 0.3-0.45 0.633-0.45 1 0 0.4 0.15 0.733 0.45 1 0.267 0.267 0.6 0.4 1 0.4 0.433 0 0.783-0.133 1.05-0.4 0.3-0.267 0.45-0.6 0.45-1z" fill="#A88356"/>
						<path d="m48.9-32.6c0-0.3-0.1-0.55-0.3-0.75-0.233-0.2-0.5-0.3-0.8-0.3-0.333 0-0.6 0.1-0.8 0.3-0.233 0.2-0.35 0.45-0.35 0.75s0.117 0.55 0.35 0.75c0.2 0.233 0.467 0.35 0.8 0.35 0.3 0 0.567-0.117 0.8-0.35 0.2-0.2 0.3-0.45 0.3-0.75z" fill="#EFC48F"/>
						<path d="m48.9-32.7c0-0.3-0.1-0.55-0.3-0.75-0.233-0.2-0.5-0.3-0.8-0.3s-0.55 0.1-0.75 0.3c-0.233 0.2-0.35 0.45-0.35 0.75 0 0.267 0.117 0.5 0.35 0.7 0.2 0.2 0.45 0.3 0.75 0.3s0.567-0.1 0.8-0.3c0.2-0.2 0.3-0.434 0.3-0.7z" fill="#BC9561"/>
						<path d="m48.7-32.65c0-0.233-0.083-0.433-0.25-0.6s-0.367-0.25-0.6-0.25-0.434 0.083-0.6 0.25c-0.167 0.167-0.25 0.367-0.25 0.6s0.083 0.417 0.25 0.55c0.167 0.167 0.367 0.25 0.6 0.25 0.567 0 0.85-0.267 0.85-0.8z" fill="#A88356"/>
						<path d="m60.05-32.4c0-0.367-0.133-0.7-0.4-1-0.3-0.267-0.65-0.4-1.05-0.4-0.434 0-0.783 0.133-1.05 0.4-0.3 0.3-0.45 0.633-0.45 1 0 0.4 0.15 0.733 0.45 1 0.267 0.267 0.617 0.4 1.05 0.4 0.4 0 0.75-0.133 1.05-0.4 0.267-0.267 0.4-0.6 0.4-1z" fill="#A88356"/>
						<path d="m59.7-32.4c0-0.267-0.1-0.517-0.3-0.75-0.233-0.2-0.5-0.3-0.8-0.3-0.333 0-0.6 0.1-0.8 0.3-0.233 0.233-0.35 0.483-0.35 0.75 0 0.3 0.117 0.55 0.35 0.75 0.2 0.233 0.467 0.35 0.8 0.35 0.3 0 0.566-0.117 0.8-0.35 0.2-0.2 0.3-0.45 0.3-0.75z" fill="#EFC48F"/>
						<path d="m59.7-32.5c0-0.267-0.1-0.517-0.3-0.75-0.233-0.2-0.5-0.3-0.8-0.3s-0.55 0.1-0.75 0.3c-0.2 0.233-0.3 0.483-0.3 0.75s0.1 0.5 0.3 0.7 0.45 0.3 0.75 0.3 0.566-0.1 0.8-0.3c0.2-0.2 0.3-0.433 0.3-0.7z" fill="#BC9561"/>
						<path d="m59.55-32.45c0-0.533-0.3-0.8-0.9-0.8-0.233 0-0.433 0.083-0.6 0.25-0.167 0.133-0.25 0.316-0.25 0.55s0.083 0.417 0.25 0.55c0.167 0.167 0.367 0.25 0.6 0.25 0.6 0 0.9-0.267 0.9-0.8z" fill="#A88356"/>
						<path d="m56.8-35.55c-0.767-0.133-1.95-0.217-3.55-0.25-1.967-0.033-3.15 0.117-3.55 0.45-0.333 0.3-0.483 0.717-0.45 1.25 0.067 0.467 0 0.717-0.2 0.75-0.4 0.1-0.883 0.183-1.45 0.25v1.05c0.3 0.033 0.617 0.067 0.95 0.1 0.7 0.033 1.15-0.05 1.35-0.25 0.267-0.233 0.434-0.7 0.5-1.4 0.067-0.567 0.317-0.883 0.75-0.95 0.767-0.1 1.6-0.15 2.5-0.15 1.133 0.033 1.883 0.15 2.25 0.35 0.267 0.133 0.483 0.583 0.65 1.35 0.167 0.7 0.4 1.066 0.7 1.1h1.7v-1.05l-0.7-0.05c-0.467-0.1-0.75-0.267-0.85-0.5l-0.05-1.2c-0.033-0.5-0.217-0.783-0.55-0.85z" fill="#CEA467"/>
						<path d="m58.25-32.3c0.4-0.033 0.633-0.05 0.7-0.05v-0.6l-0.7-0.05c-0.467-0.1-0.75-0.267-0.85-0.5l-0.05-1.2c-0.033-0.5-0.217-0.783-0.55-0.85-0.767-0.133-1.95-0.217-3.55-0.25-1.967-0.033-3.15 0.117-3.55 0.45-0.333 0.3-0.483 0.717-0.45 1.25 0.067 0.467 0 0.717-0.2 0.75-0.4 0.1-0.883 0.183-1.45 0.25v0.65c0.167 0.067 0.467 0.067 0.9 0 0.467-0.067 0.833-0.183 1.1-0.35 0.233-0.133 0.4-0.5 0.5-1.1 0.066-0.5 0.283-0.8 0.65-0.9 0.533-0.133 1.5-0.2 2.9-0.2 1.434 0 2.283 0.1 2.55 0.3 0.133 0.1 0.333 0.483 0.6 1.15 0.2 0.667 0.434 1.067 0.7 1.2 0.167 0.1 0.417 0.117 0.75 0.05z" fill="#BC9561"/>
						<path d="m57.5-32.8l1.45 0.35v-0.5l-0.7-0.05c-0.467-0.1-0.75-0.267-0.85-0.5l-0.05-1.2c-0.033-0.5-0.217-0.783-0.55-0.85-0.767-0.133-1.95-0.217-3.55-0.25-1.967-0.033-3.15 0.117-3.55 0.45-0.3 0.267-0.45 0.633-0.45 1.1 0.033 0.5 0.033 0.767 0 0.8l0.15 0.2c0-0.034 0.05-0.417 0.15-1.15 0.067-0.5 0.317-0.783 0.75-0.85 0.9-0.133 2.1-0.217 3.6-0.25 1.867-0.067 2.9 0.033 3.1 0.3 0.133 0.2 0.167 0.667 0.1 1.4-0.033 0.633 0.1 0.967 0.4 1z" fill="#A88356"/>
						<path d="m50.45-34.5c0.667-0.267 1.667-0.367 3-0.3l2.75 0.1-0.8-0.2c-0.667-0.133-1.383-0.2-2.15-0.2-1.2 0-2.133 0.2-2.8 0.6z" fill="#EFC48F"/>
						<path d="m48.15-32.5c0.233 0.066 0.483 0.117 0.75 0.15 0.5 0.066 0.817 0.017 0.95-0.15 0.2-0.267 0.267-0.6 0.2-1-0.066 0.1-0.15 0.2-0.25 0.3-0.2 0.2-0.4 0.3-0.6 0.3-0.3 0-0.65 0.133-1.05 0.4z" fill="#EFC48F"/>
						<path d="m57-33.2c-0.1 0.467 0.033 0.833 0.4 1.1 0.2 0.133 0.45 0.2 0.75 0.2h0.4l-1.05-0.45-0.5-0.85z" fill="#EFC48F"/>
					<polygon points="72.8 -30.65 31.95 -30.65 32 -30.35 72.8 -30.35" fill="#AF7852"/>
					<polygon points="24.9 -95.75 24.9 -84.5 70.5 -84.5 70.5 -95.75" fill="#966845"/>
					<polygon points="26.05 -94.25 26.05 -85.4 69.35 -85.4 69.35 -94.25" fill="#825C3A"/>
					<polygon points="24.9 -95.75 24.9 -84.5 26.05 -85.4 26.05 -94.25" fill="#543B29"/>
					<polygon points="69.35 -85.4 70.5 -84.5 70.5 -95.75 69.35 -94.25" fill="#543B29"/>
					<path d="m26.05-85.4h43.3v-4.35c-0.067 0.466-0.283 0.95-0.65 1.45-0.667 1-1.684 1.567-3.05 1.7-2.1 0.2-8.333 0.3-18.7 0.3-10.967-0.033-16.983-0.233-18.05-0.6-0.9-0.3-1.65-0.85-2.25-1.65-0.267-0.367-0.467-0.717-0.6-1.05v4.2z" fill="#A06F4A"/>
					<polygon points="26.05 -94.25 69.35 -94.25 70.5 -95.75 24.9 -95.75" fill="#473325"/>
						<path d="m43.5-88.85c0-0.667-0.217-1.25-0.65-1.75-0.434-0.5-0.95-0.75-1.55-0.75s-1.117 0.25-1.55 0.75-0.65 1.083-0.65 1.75 0.217 1.25 0.65 1.75c0.433 0.467 0.95 0.7 1.55 0.7s1.117-0.233 1.55-0.7c0.433-0.5 0.65-1.084 0.65-1.75z" fill="#66472F"/>
						<path d="m57.05-88.5c0-0.667-0.216-1.25-0.65-1.75-0.433-0.467-0.95-0.7-1.55-0.7-0.633 0-1.167 0.233-1.6 0.7-0.433 0.5-0.65 1.083-0.65 1.75 0 0.7 0.217 1.283 0.65 1.75 0.433 0.5 0.967 0.75 1.6 0.75 0.6 0 1.117-0.25 1.55-0.75 0.433-0.467 0.65-1.05 0.65-1.75z" fill="#66472F"/>
						<path d="m43.2-88.65c0-0.566-0.184-1.066-0.55-1.5-0.333-0.4-0.767-0.6-1.3-0.6-0.5 0-0.934 0.2-1.3 0.6-0.367 0.434-0.55 0.934-0.55 1.5 0 0.534 0.183 1.017 0.55 1.45 0.367 0.4 0.8 0.6 1.3 0.6 0.533 0 0.967-0.2 1.3-0.6 0.367-0.4 0.55-0.883 0.55-1.45z" fill="#A88356"/>
						<path d="m42.8-88.65c0-0.433-0.133-0.816-0.4-1.15-0.3-0.3-0.633-0.45-1-0.45-0.4 0-0.733 0.15-1 0.45s-0.4 0.684-0.4 1.15c0 0.434 0.133 0.8 0.4 1.1s0.6 0.45 1 0.45c0.367 0 0.7-0.15 1-0.45 0.267-0.3 0.4-0.667 0.4-1.1z" fill="#EFC48F"/>
						<path d="m42.8-88.85c0-0.434-0.133-0.783-0.4-1.05-0.267-0.3-0.583-0.45-0.95-0.45s-0.7 0.15-1 0.45c-0.267 0.267-0.4 0.617-0.4 1.05s0.133 0.783 0.4 1.05c0.3 0.3 0.633 0.45 1 0.45s0.683-0.15 0.95-0.45c0.267-0.267 0.4-0.617 0.4-1.05z" fill="#BC9561"/>
						<path d="m42.55-88.8c0-0.333-0.1-0.617-0.3-0.85s-0.45-0.35-0.75-0.35-0.55 0.117-0.75 0.35c-0.233 0.233-0.35 0.517-0.35 0.85s0.117 0.617 0.35 0.85c0.2 0.233 0.45 0.35 0.75 0.35s0.55-0.117 0.75-0.35 0.3-0.517 0.3-0.85z" fill="#A88356"/>
						<path d="m56.7-88.35c0-0.567-0.184-1.067-0.55-1.5-0.333-0.4-0.767-0.6-1.3-0.6-0.5 0-0.934 0.2-1.3 0.6-0.367 0.433-0.55 0.933-0.55 1.5 0 0.533 0.183 1.017 0.55 1.45 0.367 0.4 0.8 0.6 1.3 0.6 0.533 0 0.967-0.2 1.3-0.6 0.367-0.4 0.55-0.884 0.55-1.45z" fill="#A88356"/>
						<path d="m56.3-88.35c0-0.434-0.133-0.817-0.4-1.15-0.3-0.3-0.633-0.45-1-0.45-0.4 0-0.733 0.15-1 0.45s-0.4 0.683-0.4 1.15c0 0.433 0.133 0.8 0.4 1.1s0.6 0.45 1 0.45c0.367 0 0.7-0.15 1-0.45 0.267-0.3 0.4-0.667 0.4-1.1z" fill="#EFC48F"/>
						<path d="m56.3-88.55c0-0.433-0.133-0.783-0.4-1.05-0.3-0.3-0.633-0.45-1-0.45s-0.683 0.15-0.95 0.45c-0.267 0.267-0.4 0.617-0.4 1.05 0 0.434 0.133 0.783 0.4 1.05 0.267 0.3 0.583 0.45 0.95 0.45s0.7-0.15 1-0.45c0.267-0.267 0.4-0.617 0.4-1.05z" fill="#BC9561"/>
						<path d="m56.05-88.5c0-0.333-0.1-0.617-0.3-0.85s-0.45-0.35-0.75-0.35-0.55 0.117-0.75 0.35c-0.233 0.233-0.35 0.517-0.35 0.85s0.117 0.617 0.35 0.85c0.2 0.233 0.45 0.35 0.75 0.35s0.55-0.117 0.75-0.35 0.3-0.517 0.3-0.85z" fill="#A88356"/>
						<path d="m52.65-93.05c-0.867-0.2-2.333-0.316-4.4-0.35-2.5-0.033-4 0.2-4.5 0.7-0.433 0.4-0.6 1-0.5 1.8 0.033 0.667-0.05 1.034-0.25 1.1-0.5 0.167-1.1 0.283-1.8 0.35v1.55c0.367 0.067 0.767 0.117 1.2 0.15 0.833 0.033 1.383-0.083 1.65-0.35 0.333-0.333 0.534-1.017 0.6-2.05 0.067-0.867 0.383-1.35 0.95-1.45 1-0.133 2.033-0.184 3.1-0.15 1.4 0.033 2.333 0.2 2.8 0.5 0.333 0.2 0.617 0.867 0.85 2 0.2 1.033 0.483 1.566 0.85 1.6h2.15l-0.05-1.6-0.85-0.1c-0.567-0.133-0.917-0.35-1.05-0.65-0.033-0.067-0.066-0.65-0.1-1.75-0.033-0.8-0.25-1.233-0.65-1.3z" fill="#CEA467"/>
						<path d="m53.4-90c-0.033-0.067-0.066-0.65-0.1-1.75-0.033-0.8-0.25-1.233-0.65-1.3-0.867-0.2-2.333-0.316-4.4-0.35-2.5-0.033-4 0.2-4.5 0.7-0.433 0.4-0.6 1-0.5 1.8 0.033 0.667-0.05 1.034-0.25 1.1-0.5 0.167-1.1 0.283-1.8 0.35v1c0.2 0.067 0.566 0.05 1.1-0.05 0.6-0.1 1.05-0.267 1.35-0.5 0.3-0.2 0.517-0.733 0.65-1.6 0.1-0.767 0.367-1.217 0.8-1.35 0.733-0.167 1.933-0.25 3.6-0.25 1.8 0 2.867 0.133 3.2 0.4 0.2 0.167 0.45 0.733 0.75 1.7 0.267 0.967 0.55 1.55 0.85 1.75 0.2 0.167 0.5 0.217 0.9 0.15 0.5-0.1 0.8-0.133 0.9-0.1v-0.95l-0.85-0.1c-0.567-0.133-0.917-0.35-1.05-0.65z" fill="#BC9561"/>
						<path d="m53.5-89c0.5 0.033 1.1 0.216 1.8 0.55v-0.8l-0.85-0.1c-0.567-0.133-0.917-0.35-1.05-0.65-0.033-0.067-0.066-0.65-0.1-1.75-0.033-0.8-0.25-1.233-0.65-1.3-0.867-0.2-2.333-0.316-4.4-0.35-2.5-0.033-4 0.2-4.5 0.7-0.4 0.367-0.583 0.883-0.55 1.55 0.033 0.733 0.033 1.133 0 1.2l0.2 0.25 0.2-1.6c0.1-0.8 0.417-1.233 0.95-1.3 1-0.2 2.483-0.333 4.45-0.4 2.367-0.067 3.683 0.1 3.95 0.5 0.167 0.233 0.2 0.917 0.1 2.05-0.1 0.933 0.05 1.416 0.45 1.45z" fill="#A88356"/>
						<path d="m44.7-91.5c0.833-0.367 2.083-0.517 3.75-0.45l3.45 0.15-0.95-0.3c-0.833-0.2-1.733-0.3-2.7-0.3-1.533 0-2.717 0.3-3.55 0.9z" fill="#EFC48F"/>
						<path d="m41.85-88.55c0.3 0.1 0.6 0.167 0.9 0.2 0.633 0.1 1.033 0.033 1.2-0.2 0.267-0.367 0.367-0.85 0.3-1.45-0.067 0.133-0.167 0.283-0.3 0.45-0.267 0.3-0.517 0.45-0.75 0.45-0.4 0-0.85 0.183-1.35 0.55z" fill="#EFC48F"/>
						<path d="m52.95-89.55c-0.167 0.667-0.017 1.184 0.45 1.55 0.267 0.2 0.583 0.316 0.95 0.35h0.5l-1.35-0.7-0.55-1.2z" fill="#EFC48F"/>
					<polygon points="26.15 -85.4 69.4 -85.4 69.4 -85.85 26.1 -85.85" fill="#AF7852"/>
				<polygon points="171.1 -59.45 172.35 -60.2 13.4 -60.2 13.7 -59.45" fill="#A8724E"/>
				<path d="m21.45-100.85h53.1v-4.2l-7.5 1.45c-6.233 0.933-12.466 1.367-18.7 1.3-6.2-0.066-12.55-0.533-19.05-1.4-3.233-0.433-5.85-0.85-7.85-1.25v4.1z" fill="#825C3A"/>
				<polygon points="21.45 -100.4 74.55 -100.4 74.55 -101 21.45 -101" fill="#AF7852"/>
				<polygon points="74.6 -98.45 82.95 -84.95 82.8 -87.15 74.55 -100.35" fill="#35251C"/>
				<polygon points="164.35 -98.45 164.35 -100.25 155.4 -86.8 155.5 -85" fill="#35251C"/>
				<path d="m21.75-107.3c11.067-1.2 19.983-1.8 26.75-1.8 7.233 0 13.717 0.45 19.45 1.35l6.45 1.35 0.15-5.7h-53.1l0.3 4.8z" fill="#6D4D35"/>
				<polygon points="164.6 -105.7 168 -105.5 168.3 -112.1 164.55 -112.1" fill="#6D4D35"/>
				<path d="m71.75-27.5c-4.367 0.367-10.467 0.55-18.3 0.55-10.8 0-19.117-0.45-24.95-1.35-0.4 0 1 0.817 4.2 2.45l42.9-0.55 0.35-1.6-4.2 0.5z" fill="#4F3727"/>
				<polygon points="76.05 -28.75 28.5 -28.75 28.5 -28.3 76.05 -28.3" fill="#A06F4A"/>
				<polygon points="155.9 -29 79.35 -29 79.35 -28.5 155.9 -28.5" fill="#845D3D"/>
				<path d="m153.6-33.25c0.367 0.033 1.117 0.283 2.25 0.75v-2.8h-5.4c-0.167 0.5-0.467 0.983-0.9 1.45-0.867 0.933-1.966 1.35-3.3 1.25-1.3-0.1-2.517-0.583-3.65-1.45-0.533-0.433-0.95-0.85-1.25-1.25-0.267 0.367-0.684 0.767-1.25 1.2-1.1 0.8-2.317 1.3-3.65 1.5s-7.15 0.3-17.45 0.3c-5.233 0-10.85-0.017-16.85-0.05-1.033 0-2.283-0.533-3.75-1.6-0.733-0.5-1.367-1.017-1.9-1.55-0.333 0.4-0.817 0.8-1.45 1.2-1.267 0.833-2.667 1.25-4.2 1.25s-2.633-0.417-3.3-1.25c-0.367-0.4-0.566-0.8-0.6-1.2h-7.6v2.95c3.433-0.533 5.717-0.55 6.85-0.05 1.1 0.5 2.483 0.883 4.15 1.15 2 0.333 3.533 0.333 4.6 0 1.267-0.433 1.767-0.883 1.5-1.35 0.466 0.467 1.117 0.883 1.95 1.25 1.3 0.633 2.817 0.967 4.55 1 4.466 0.1 10.55 0.167 18.25 0.2 9.933 0.066 15.4 0 16.4-0.2 0.967-0.2 1.883-0.667 2.75-1.4 0.4-0.4 0.717-0.767 0.95-1.1 0.5 0.4 1.117 0.817 1.85 1.25 1.467 0.8 2.733 1.167 3.8 1.1 0.933-0.033 2.2-0.5 3.8-1.4 1.5-0.834 2.45-1.217 2.85-1.15z" fill="#6B4B32"/>
				<path d="m145.85-27.15c-8.533 0.467-18.45 0.717-29.75 0.75-12.8 0.034-24.717-0.3-35.75-1l2 1.8h69.65l3.25-2.25c-2 0.233-5.13 0.467-9.4 0.7z" fill="#4F3727"/>
				<polygon points="159 -6.8 159 -18.65 25.7 -19.05 25.7 -6.8" fill="#664730"/>
				<polygon points="159 -12.1 159 -15.3 25.7 -15.45 25.7 -12.1" fill="#563D2C"/>
				<polygon points="159 -12.1 159 -14 25.7 -14.1 25.7 -12.1" fill="#4C3525"/>
				<polygon points="159 -6.8 159 -12.85 25.7 -13.05 25.7 -6.8" fill="#775437"/>
				<polygon points="159 -6.8 159 -9.25 25.7 -9.3 25.7 -6.8" fill="#6B4B32"/>
				<polygon points="159 -6.8 159 -8.05 25.7 -8.1 25.7 -6.8" fill="#5B3F2C"/>
					<path d="m41.1-16.1c0-0.467-0.167-0.867-0.5-1.2-0.367-0.333-0.8-0.5-1.3-0.5s-0.917 0.167-1.25 0.5c-0.367 0.333-0.55 0.733-0.55 1.2s0.183 0.867 0.55 1.2c0.333 0.333 0.75 0.5 1.25 0.5s0.934-0.167 1.3-0.5c0.333-0.333 0.5-0.733 0.5-1.2z" fill="#4C3525"/>
					<path d="m40.8-16.05c0-0.367-0.15-0.7-0.45-1-0.267-0.267-0.617-0.4-1.05-0.4-0.4 0-0.733 0.133-1 0.4-0.3 0.3-0.45 0.633-0.45 1 0 0.4 0.15 0.733 0.45 1 0.267 0.267 0.6 0.4 1 0.4 0.434 0 0.784-0.133 1.05-0.4 0.3-0.267 0.45-0.6 0.45-1z" fill="#A88356"/>
					<path d="m40.45-16.05c0-0.267-0.1-0.517-0.3-0.75-0.233-0.2-0.5-0.3-0.8-0.3-0.333 0-0.6 0.1-0.8 0.3-0.233 0.233-0.35 0.483-0.35 0.75 0 0.3 0.117 0.55 0.35 0.75 0.2 0.233 0.467 0.35 0.8 0.35 0.3 0 0.566-0.117 0.8-0.35 0.2-0.2 0.3-0.45 0.3-0.75z" fill="#EFC48F"/>
					<path d="m40.45-16.15c0-0.267-0.1-0.517-0.3-0.75-0.233-0.2-0.5-0.3-0.8-0.3s-0.55 0.1-0.75 0.3c-0.2 0.233-0.3 0.483-0.3 0.75s0.1 0.517 0.3 0.75c0.2 0.2 0.45 0.3 0.75 0.3s0.566-0.1 0.8-0.3c0.2-0.233 0.3-0.483 0.3-0.75z" fill="#BC9561"/>
					<path d="m40.3-16.1c0-0.533-0.3-0.8-0.9-0.8-0.233 0-0.433 0.083-0.6 0.25-0.167 0.133-0.25 0.317-0.25 0.55s0.083 0.417 0.25 0.55c0.167 0.167 0.367 0.25 0.6 0.25 0.6 0 0.9-0.267 0.9-0.8z" fill="#A88356"/>
					<path d="m147.35-16c0-0.467-0.167-0.85-0.5-1.15-0.333-0.333-0.75-0.5-1.25-0.5s-0.917 0.167-1.25 0.5c-0.367 0.3-0.55 0.684-0.55 1.15s0.184 0.867 0.55 1.2c0.333 0.333 0.75 0.5 1.25 0.5s0.917-0.167 1.25-0.5c0.33-0.333 0.5-0.734 0.5-1.2z" fill="#4C3525"/>
					<path d="m147.1-15.9c0-0.4-0.15-0.733-0.45-1-0.267-0.267-0.617-0.4-1.05-0.4-0.4 0-0.75 0.133-1.05 0.4s-0.45 0.6-0.45 1c0 0.367 0.15 0.7 0.45 1 0.3 0.267 0.65 0.4 1.05 0.4 0.433 0 0.783-0.133 1.05-0.4 0.3-0.3 0.45-0.634 0.45-1z" fill="#A88356"/>
					<path d="m146.75-15.9c0-0.3-0.117-0.566-0.35-0.8-0.2-0.2-0.467-0.3-0.8-0.3-0.3 0-0.55 0.1-0.75 0.3-0.233 0.233-0.35 0.5-0.35 0.8s0.117 0.55 0.35 0.75c0.2 0.2 0.45 0.3 0.75 0.3 0.333 0 0.6-0.1 0.8-0.3 0.23-0.2 0.35-0.45 0.35-0.75z" fill="#EFC48F"/>
					<path d="m146.75-16.05c0-0.267-0.1-0.5-0.3-0.7-0.233-0.2-0.5-0.3-0.8-0.3s-0.55 0.1-0.75 0.3c-0.233 0.2-0.35 0.433-0.35 0.7 0 0.3 0.117 0.55 0.35 0.75 0.2 0.2 0.45 0.3 0.75 0.3s0.567-0.1 0.8-0.3c0.2-0.2 0.3-0.45 0.3-0.75z" fill="#BC9561"/>
					<path d="m146.55-16c0-0.534-0.283-0.8-0.85-0.8s-0.85 0.267-0.85 0.8c0 0.233 0.083 0.433 0.25 0.6s0.367 0.25 0.6 0.25c0.57 0 0.85-0.284 0.85-0.85z" fill="#A88356"/>
				<polygon points="21.2 -10.55 21.2 -6.95 24.75 -6.85 24.8 -10.65" fill="#755235"/>
				<polygon points="21.2 -8.85 21.2 -6.95 24.75 -6.85 24.8 -8.85" fill="#66472F"/>
				<polygon points="162.85 -10 159.5 -10.2 159.5 -6.7 162.85 -6.7" fill="#755235"/>
				<polygon points="159.5 -8.8 159.5 -6.7 162.85 -6.7 162.75 -8.65" fill="#66472F"/>
				<path d="m21.35-20.55c0.8-0.6 1.467-0.833 2-0.7 0.3 0.1 0.667 0.283 1.1 0.55l0.55 0.35 0.05-2.95-2.05-2.1c-0.067 0.233-0.183 0.45-0.35 0.65-0.3 0.433-0.65 0.633-1.05 0.6-0.667-0.066-1.55-0.25-2.65-0.55l2.25 1.7 0.15 2.45z" fill="#755235"/>
				<path d="m159.5-19.7c0.967-0.733 1.65-1.067 2.05-1 0.367 0.1 0.8 0.45 1.3 1.05l-0.3-2.95 1.95-1.85c-0.2 0.033-0.45 0.067-0.75 0.1-0.533 0.033-0.983-0.05-1.35-0.25s-0.583-0.5-0.65-0.9c-0.033-0.233-0.033-0.434 0-0.6l-2.15 2.45-0.1 3.95z" fill="#755235"/>
				<path d="m14.1-45.85l0.5-1.3c0.433-0.833 0.917-1.2 1.45-1.1 0.567 0.1 0.983 0.583 1.25 1.45l0.2 1.25 0.45-14.05-3.5 0.15-0.35 13.6z" fill="#755235"/>
				<path d="m166.2-44.65l0.55-1.25c0.467-0.8 0.883-1.2 1.25-1.2 0.6 0 1.2 0.6 1.8 1.8v-14l-3.85-0.05 0.25 14.7z" fill="#755235"/>
				<path d="m14.4-55.75c0.6-1.2 1.267-1.767 2-1.7 0.467 0.033 0.817 0.267 1.05 0.7l0.25 0.65 0.25-3.5-3.5 0.15-0.05 3.7z" fill="#66472F"/>
				<path d="m166.2-55l0.5-0.8c0.4-0.5 0.783-0.75 1.15-0.75 0.6 0 1.283 0.367 2.05 1.1l-0.1-3.85-3.85-0.05 0.1 3.9 0.15 0.45z" fill="#66472F"/>
				<path d="m15.7-29.9c0.7 0.567 1.417 0.75 2.15 0.55 0.6-0.133 0.85-0.6 0.75-1.4-0.033-0.467-0.184-1.2-0.45-2.2-0.133-0.9-0.383-1.75-0.75-2.55-0.5-1.034-1.017-1.534-1.55-1.5-0.7 0.066-1.25 0.45-1.65 1.15 0.133 2.2 0.633 4.183 1.5 5.95z" fill="#89603E"/>
				<path d="m165.85-28.45c0.233 0.067 0.583 0.1 1.05 0.1 1.333-2.4 2.083-4.983 2.25-7.75-0.5-0.533-0.967-0.783-1.4-0.75-0.567 0.033-1.017 0.383-1.35 1.05-0.267 0.467-0.533 1.267-0.8 2.4-0.7 3.067-0.62 4.716 0.25 4.95z" fill="#89603E"/>
				<path d="m21.2-23l0.05 0.85c0.667-0.367 1.283-0.517 1.85-0.45 0.367 0.066 0.8 0.183 1.3 0.35l0.6 0.25 0.05-1.3-3.85 0.3z" fill="#66472F"/>
				<path d="m159.6-23.65l0.05 1.5 0.4-0.1c0.333-0.1 0.767-0.167 1.3-0.2 0.8-0.1 1.367 0.15 1.7 0.75l-0.2-1.35-3.25-0.6z" fill="#66472F"/>
				<polygon points="156 -51.95 158.2 -52 159.05 -54.1" fill="#4C3627"/>
				<polygon points="158.1 -49.5 165.95 -58 169.85 -58 170.75 -59.2 165.95 -59.35 157.8 -53.1" fill="#4C3627"/>
				<polygon points="26.45 -52.25 26.65 -53.65 18.4 -59.65 13.65 -59.5 14.55 -58.3 18.4 -58.3" fill="#4C3627"/>
				<path d="m149.3-19.1l2.7 0.5v-7l-3.05 0.2c0.3 0.2 0.6 0.467 0.9 0.8 0.566 0.633 0.833 1.3 0.8 2s-0.267 1.5-0.7 2.4l-0.65 1.1z" fill="#35251C"/>
				<path d="m82.6-18.75l3.35-0.45-1-0.9c-0.633-0.767-0.934-1.517-0.9-2.25 0.067-1.2 0.55-2.167 1.45-2.9l-2.85 0.15-0.05 6.35z" fill="#35251C"/>
				<path d="m32.3-19.3h4.6l-1.55-1.1c-1-0.9-1.483-1.783-1.45-2.65 0.1-1.333 0.567-2.267 1.4-2.8h-3v6.55z" fill="#35251C"/>
				<path d="m75.85-19.45v-6.05l-4.05 0.35c1.133 0.5 1.767 1.317 1.9 2.45 0.1 0.7-0.284 1.5-1.15 2.4l-1.3 1.1 4.6-0.25z" fill="#35251C"/>
				<path d="m151.9-41.95l-0.1-7.65-3.75 0.4c0.6 1.267 0.9 2.483 0.9 3.65l0.25 3.6h2.7z" fill="#35251C"/>
				<polygon points="32.55 -45.7 35 -45.55 35.35 -50.05 32.25 -50.4" fill="#35251C"/>
				<polygon points="82.7 -97.15 83.1 -80.15 84.9 -80.15 84.9 -96.8" fill="#35251C"/>
				<polygon points="155.4 -79.7 155.4 -96.95 153.3 -96.95 153.3 -80.15" fill="#35251C"/>
				<polygon points="26.4 -51.4 28.2 -51.1 28.05 -52.25 25.8 -53.8" fill="#4C3627"/>
		</g>
</symbol>
<symbol id="h">
</symbol>
	<use transform="matrix(1 0 0 -1 0 25)" y="-119" width="189" height="119" xlink:href="#g"/>
		<use transform="matrix(1 0 0 -1 94.65 137.1)" x="16383" y="16383" width="-32766" height="-32766" xlink:href="#h"/>
</svg>